<?xml version="1.0" encoding="iso-8859-1"?>
<!-- Generator: Adobe Illustrator 25.2.3, SVG Export Plug-In . SVG Version: 6.00 Build 0)  -->
<svg version="1.1" xmlns="http://www.w3.org/2000/svg" xmlns:xlink="http://www.w3.org/1999/xlink" x="0px" y="0px"
	 viewBox="0 0 24 24" style="enable-background:new 0 0 24 24;" xml:space="preserve">
<g id="Layer_1">
	<g>
	</g>
	<path style="fill:none;stroke:#000000;stroke-width:2;stroke-linecap:round;stroke-linejoin:round;stroke-miterlimit:10;" d="
		M9.5,23L9.5,23C7.567,23,6,21.433,6,19.5l0,0C6,17.567,7.567,16,9.5,16H13v3.5C13,21.433,11.433,23,9.5,23z"/>
	<path style="fill:none;stroke:#000000;stroke-width:2;stroke-linecap:round;stroke-linejoin:round;stroke-miterlimit:10;" d="
		M16.5,9H13V2h3.5C18.433,2,20,3.567,20,5.5l0,0C20,7.433,18.433,9,16.5,9z"/>
	<path style="fill:none;stroke:#000000;stroke-width:2;stroke-linecap:round;stroke-linejoin:round;stroke-miterlimit:10;" d="
		M9.5,9H13V2H9.5C7.567,2,6,3.567,6,5.5l0,0C6,7.433,7.567,9,9.5,9z"/>
	<path style="fill:none;stroke:#000000;stroke-width:2;stroke-linecap:round;stroke-linejoin:round;stroke-miterlimit:10;" d="
		M9.5,16H13V9H9.5C7.567,9,6,10.567,6,12.5l0,0C6,14.433,7.567,16,9.5,16z"/>
	<circle cx="17" cy="13" r="3"/>
</g>
<g id="Layer_2">
</g>
</svg>