<?xml version="1.0" standalone="no"?>
<!DOCTYPE svg PUBLIC "-//W3C//DTD SVG 20010904//EN"
 "http://www.w3.org/TR/2001/REC-SVG-20010904/DTD/svg10.dtd">
<svg version="1.0" xmlns="http://www.w3.org/2000/svg"
 width="30.000000pt" height="30.000000pt" viewBox="0 0 30.000000 30.000000"
 preserveAspectRatio="xMidYMid meet">

<g transform="translate(0.000000,30.000000) scale(0.100000,-0.100000)"
fill="#000000" stroke="none">
<path d="M90 234 c-56 -47 -70 -64 -51 -64 5 0 11 -28 13 -62 l3 -63 95 0 95
0 3 60 c2 33 9 63 15 67 9 6 6 14 -10 27 -13 11 -23 31 -23 45 0 27 -25 37
-33 14 -3 -10 -9 -8 -24 5 -11 9 -21 17 -24 17 -2 0 -29 -21 -59 -46z m90
-134 c0 -38 -2 -40 -30 -40 -28 0 -30 2 -30 40 0 38 2 40 30 40 28 0 30 -2 30
-40z"/>
</g>
</svg>
