<?xml version="1.0" encoding="iso-8859-1"?>
<!-- Generator: Adobe Illustrator 23.1.0, SVG Export Plug-In . SVG Version: 6.00 Build 0)  -->
<svg version="1.1" id="Layer_1" xmlns="http://www.w3.org/2000/svg" xmlns:xlink="http://www.w3.org/1999/xlink" x="0px" y="0px"
	 viewBox="0 0 64 64" style="enable-background:new 0 0 64 64;" xml:space="preserve">
<linearGradient id="SVGID_1_" gradientUnits="userSpaceOnUse" x1="31.5951" y1="2" x2="31.5951" y2="63">
	<stop  offset="0" style="stop-color:#6DC7FF"/>
	<stop  offset="1" style="stop-color:#E6ABFF"/>
</linearGradient>
<path style="fill:url(#SVGID_1_);" d="M41,3c0,0-10.757,8.515-15,17c-3,6-4,11-3,21c-1,1-2,2-2,2l-1-2l-2,1l-2-4h-2c0,0-2-23,21-36
	c0,2,0,2,0,2L41,3z M36,25c3,1,8,6,5,14c-3.615,9.64-10,14-10,14h1l-6,5h4l-4,5c0,0,16.157-11.344,21-22c5-11,1-17-6-22c0,0-2-2-7-1
	c1,1,2,2,2,2l-2,1L36,25z M31.5,28c-3.038,0-5.5,2.686-5.5,6s2.462,6,5.5,6c0.068,0,0.133-0.008,0.2-0.011
	c0.458-0.874,0.874-2.265,0.3-3.989c0.726,0.726,1.971,1.462,2.603,2.953C36.05,37.872,37,36.057,37,34C37,30.686,34.538,28,31.5,28
	z"/>
<linearGradient id="SVGID_2_" gradientUnits="userSpaceOnUse" x1="31.4831" y1="0.9999" x2="31.4831" y2="64">
	<stop  offset="0" style="stop-color:#1A6DFF"/>
	<stop  offset="1" style="stop-color:#C822FF"/>
</linearGradient>
<path style="fill:url(#SVGID_2_);" d="M20.95,44c-0.052,0-0.106-0.004-0.159-0.013c-0.315-0.052-0.587-0.253-0.73-0.54l-0.549-1.105
	l-1.099,0.553c-0.49,0.245-1.087,0.047-1.333-0.447L15.367,39h-1.373c-0.515,0-0.945-0.396-0.99-0.913
	c-0.02-0.236-1.775-23.793,21.37-36.958c0.309-0.175,0.685-0.172,0.99,0.007C35.669,1.315,35.856,1.645,35.856,2v0.819l4.806-0.806
	c0.449-0.077,0.888,0.165,1.071,0.581c0.183,0.417,0.064,0.906-0.291,1.189c-0.106,0.083-10.568,8.479-14.635,16.663
	c-2.716,5.466-3.907,10.13-2.881,20.453c0.029,0.299-0.076,0.595-0.286,0.807l-1.988,2C21.465,43.896,21.211,44,20.95,44z
	 M19.955,40c0.365,0,0.715,0.202,0.89,0.553l0.378,0.759l0.68-0.685c-0.878-9.269-0.073-14.634,3.127-21.074
	c2.958-5.955,8.901-11.819,12.413-14.972l-2.417,0.405c-0.288,0.049-0.583-0.034-0.805-0.223C33.997,4.573,33.869,4.294,33.869,4
	V3.75C15.841,14.903,14.908,32.775,14.952,37h1.029c0.377,0,0.72,0.214,0.889,0.553l1.543,3.105l1.099-0.553
	C19.654,40.034,19.806,40,19.955,40z M25.919,64c-0.266,0-0.53-0.107-0.724-0.315c-0.339-0.362-0.361-0.921-0.052-1.31L27.826,59
	h-1.907c-0.418,0-0.792-0.264-0.935-0.659c-0.143-0.396-0.023-0.84,0.298-1.109l4.665-3.911c-0.003-0.008-0.006-0.016-0.008-0.024
	c-0.129-0.418,0.028-0.873,0.386-1.121c0.061-0.042,6.141-4.328,9.569-13.526c1.148-3.079,1.134-6.015-0.038-8.488
	c-1.076-2.271-2.942-3.751-4.315-4.211c-0.249-0.084-0.456-0.264-0.575-0.501l-1.988-4c-0.246-0.494-0.047-1.095,0.444-1.342
	l0.754-0.379l-1.012-1.019c-0.259-0.261-0.354-0.644-0.248-0.997c0.106-0.353,0.397-0.619,0.756-0.691
	c4.946-0.995,7.315,0.797,7.774,1.199c6.247,4.5,11.853,10.781,6.245,23.195c-4.87,10.779-20.538,21.935-21.203,22.404
	C26.317,63.94,26.118,64,25.919,64z M28.663,57h1.231c0.382,0,0.73,0.221,0.896,0.566c0.044,0.093,0.073,0.189,0.087,0.288
	c5.045-4.224,12.139-10.921,15.006-17.269c5.012-11.094,0.253-16.54-5.636-20.772c-0.045-0.032-0.086-0.068-0.125-0.107
	C40.074,19.662,38.89,18.584,36,18.73l0.559,0.563c0.226,0.227,0.33,0.55,0.279,0.867c-0.051,0.317-0.251,0.59-0.537,0.734
	l-1.099,0.553l1.369,2.755c1.615,0.675,3.771,2.339,5.078,5.096c0.984,2.075,1.801,5.503,0.106,10.053
	c-2.671,7.165-6.787,11.479-8.923,13.362c0.114,0.382-0.009,0.797-0.315,1.055L28.663,57z M31.384,41c-3.562,0-6.459-3.141-6.459-7
	c0-3.86,2.898-7,6.459-7s6.459,3.14,6.459,7c0,2.294-1.039,4.445-2.781,5.754c-0.245,0.185-0.56,0.244-0.854,0.164
	c-0.295-0.08-0.537-0.292-0.656-0.575c-0.126-0.299-0.284-0.562-0.463-0.8c-0.115,0.765-0.366,1.411-0.626,1.91
	c-0.167,0.32-0.493,0.524-0.851,0.536C31.509,40.996,31.447,41,31.384,41z M31.384,29c-2.466,0-4.472,2.243-4.472,5
	c0,2.591,1.771,4.728,4.03,4.976c0.301-0.85,0.3-1.741-0.004-2.659c-0.147-0.44,0.028-0.923,0.42-1.167
	c0.391-0.243,0.899-0.186,1.225,0.144c0.165,0.166,0.36,0.331,0.568,0.509c0.464,0.396,1.04,0.89,1.54,1.561
	c0.741-0.911,1.165-2.104,1.165-3.362C35.856,31.243,33.85,29,31.384,29z"/>
</svg>