<?xml version="1.0" standalone="no"?>
<!DOCTYPE svg PUBLIC "-//W3C//DTD SVG 20010904//EN"
 "http://www.w3.org/TR/2001/REC-SVG-20010904/DTD/svg10.dtd">
<svg version="1.0" xmlns="http://www.w3.org/2000/svg"
 width="30.000000pt" height="30.000000pt" viewBox="0 0 30.000000 30.000000"
 preserveAspectRatio="xMidYMid meet">

<g transform="translate(0.000000,30.000000) scale(0.100000,-0.100000)"
fill="#000000" stroke="none">
<path d="M64 229 c-24 -25 -29 -39 -29 -79 0 -43 5 -54 33 -82 28 -28 39 -33
81 -33 39 0 55 5 76 25 l27 25 -43 7 c-28 5 -54 18 -74 38 -25 26 -30 38 -30
80 0 28 -3 50 -6 50 -3 0 -18 -14 -35 -31z"/>
</g>
</svg>
