<?xml version="1.0" standalone="no"?>
<!DOCTYPE svg PUBLIC "-//W3C//DTD SVG 20010904//EN"
 "http://www.w3.org/TR/2001/REC-SVG-20010904/DTD/svg10.dtd">
<svg version="1.0" xmlns="http://www.w3.org/2000/svg"
 width="32.000000pt" height="32.000000pt" viewBox="0 0 32.000000 32.000000"
 preserveAspectRatio="xMidYMid meet">

<g transform="translate(0.000000,32.000000) scale(0.100000,-0.100000)"
fill="#000000" stroke="none">
<path d="M145 311 c-6 -6 -30 -11 -55 -13 l-45 -3 0 -140 0 -140 115 0 115 0
0 140 0 140 -45 3 c-25 2 -49 7 -54 13 -6 5 -13 9 -16 9 -3 0 -10 -4 -15 -9z
m25 -11 c0 -5 7 -10 16 -10 8 0 12 -4 9 -10 -3 -5 -19 -10 -35 -10 -16 0 -32
5 -35 10 -3 6 1 10 9 10 9 0 16 5 16 10 0 6 5 10 10 10 6 0 10 -4 10 -10z
m-60 -25 c0 -11 12 -15 50 -15 38 0 50 4 50 15 0 10 10 15 30 15 l31 0 -3
-132 -3 -133 -105 0 -105 0 -3 133 -3 132 31 0 c20 0 30 -5 30 -15z"/>
<path d="M216 194 c-4 -10 -12 -14 -22 -10 -14 5 -15 4 -4 -9 16 -19 15 -19
34 10 9 14 12 25 7 25 -5 0 -12 -7 -15 -16z"/>
<path d="M98 183 c12 -2 32 -2 45 0 12 2 2 4 -23 4 -25 0 -35 -2 -22 -4z"/>
<path d="M215 110 c-4 -6 -13 -9 -21 -6 -16 6 -19 -10 -3 -20 12 -7 46 22 37
31 -3 4 -9 1 -13 -5z"/>
<path d="M98 103 c12 -2 32 -2 45 0 12 2 2 4 -23 4 -25 0 -35 -2 -22 -4z"/>
</g>
</svg>
