<?xml version="1.0" standalone="no"?>
<!DOCTYPE svg PUBLIC "-//W3C//DTD SVG 20010904//EN"
 "http://www.w3.org/TR/2001/REC-SVG-20010904/DTD/svg10.dtd">
<svg version="1.0" xmlns="http://www.w3.org/2000/svg"
 width="30.000000pt" height="30.000000pt" viewBox="0 0 30.000000 30.000000"
 preserveAspectRatio="xMidYMid meet">

<g transform="translate(0.000000,30.000000) scale(0.100000,-0.100000)"
fill="#000000" stroke="none">
<path d="M130 255 c-7 -8 -25 -15 -41 -15 -25 0 -29 -4 -29 -27 0 -14 -7 -35
-17 -45 -15 -17 -15 -19 0 -36 10 -10 17 -31 17 -45 0 -23 4 -27 27 -27 14 0
35 -7 45 -17 17 -15 19 -15 36 0 10 10 31 17 45 17 23 0 27 4 27 27 0 14 7 35
17 45 15 17 15 19 0 36 -10 10 -17 31 -17 45 0 23 -4 27 -29 27 -16 0 -34 7
-41 15 -7 8 -16 15 -20 15 -4 0 -13 -7 -20 -15z m67 -57 c29 -27 29 -65 1 -95
-27 -29 -65 -29 -95 -1 -29 27 -29 65 -1 95 27 29 65 29 95 1z"/>
</g>
</svg>
