<?xml version="1.0" standalone="no"?>
<!DOCTYPE svg PUBLIC "-//W3C//DTD SVG 20010904//EN"
 "http://www.w3.org/TR/2001/REC-SVG-20010904/DTD/svg10.dtd">
<svg version="1.0" xmlns="http://www.w3.org/2000/svg"
 width="32.000000pt" height="32.000000pt" viewBox="0 0 32.000000 32.000000"
 preserveAspectRatio="xMidYMid meet">

<g transform="translate(0.000000,32.000000) scale(0.100000,-0.100000)"
fill="#000000" stroke="none">
<path d="M122 278 c-22 -22 -15 -76 13 -94 23 -15 27 -15 50 0 18 12 25 25 25
49 0 40 -15 57 -50 57 -14 0 -31 -5 -38 -12z m68 -12 c28 -35 -11 -93 -47 -70
-36 22 -23 84 17 84 10 0 23 -7 30 -14z"/>
<path d="M105 135 c-46 -25 -65 -46 -65 -72 0 -23 1 -23 120 -23 l120 0 0 24
c0 57 -114 103 -175 71z m134 -31 c55 -46 44 -54 -79 -54 -123 0 -134 8 -79
54 43 37 115 37 158 0z"/>
</g>
</svg>
